<mxfile host="app.diagrams.net" modified="2022-10-10T14:53:29.939Z" agent="5.0 (Macintosh; Intel Mac OS X 10_15_7) AppleWebKit/537.36 (KHTML, like Gecko) Chrome/104.0.5112.102 Safari/537.36 OPR/90.0.4480.84" etag="vOCvOYQ0grUOtzIFw6Ae" version="20.3.3" type="github">
  <diagram id="-UWvrq-8qz9pk3H4N8ZH" name="Page-1">
    <mxGraphModel dx="823" dy="855" grid="1" gridSize="10" guides="1" tooltips="1" connect="1" arrows="1" fold="1" page="1" pageScale="1" pageWidth="827" pageHeight="1169" math="0" shadow="0">
      <root>
        <mxCell id="0" />
        <mxCell id="1" parent="0" />
        <mxCell id="FqbuVPFsn1uOoYEnQqN5-1" value="* * * * * * * * * *&lt;br&gt;* * * * * * * * * *" style="text;html=1;strokeColor=none;fillColor=none;align=left;verticalAlign=middle;whiteSpace=wrap;rounded=0;fontFamily=Courier New;fontStyle=1;fontSize=20;" vertex="1" parent="1">
          <mxGeometry x="150" y="170" width="250" height="30" as="geometry" />
        </mxCell>
        <mxCell id="FqbuVPFsn1uOoYEnQqN5-2" value="" style="endArrow=none;html=1;rounded=0;fontFamily=Courier New;fontSize=20;sketch=1;fillColor=#ffe6cc;strokeColor=#d79b00;strokeWidth=2;" edge="1" parent="1">
          <mxGeometry width="50" height="50" relative="1" as="geometry">
            <mxPoint x="110" y="218" as="sourcePoint" />
            <mxPoint x="387" y="218" as="targetPoint" />
          </mxGeometry>
        </mxCell>
        <mxCell id="FqbuVPFsn1uOoYEnQqN5-3" value="+" style="text;html=1;strokeColor=none;fillColor=none;align=center;verticalAlign=middle;whiteSpace=wrap;rounded=0;fontFamily=Courier New;fontSize=20;fontStyle=1" vertex="1" parent="1">
          <mxGeometry x="110" y="180" width="30" height="30" as="geometry" />
        </mxCell>
        <mxCell id="FqbuVPFsn1uOoYEnQqN5-4" value="* * * * * * * * * * *" style="text;html=1;strokeColor=none;fillColor=none;align=left;verticalAlign=middle;whiteSpace=wrap;rounded=0;fontFamily=Courier New;fontStyle=1;fontSize=20;" vertex="1" parent="1">
          <mxGeometry x="126" y="230" width="270" height="30" as="geometry" />
        </mxCell>
        <mxCell id="FqbuVPFsn1uOoYEnQqN5-5" value="" style="shape=curlyBracket;whiteSpace=wrap;html=1;rounded=1;fontFamily=Courier New;fontSize=20;rotation=90;fillColor=#dae8fc;strokeColor=#6c8ebf;strokeWidth=2;sketch=1;" vertex="1" parent="1">
          <mxGeometry x="255" y="20" width="20" height="230" as="geometry" />
        </mxCell>
        <mxCell id="FqbuVPFsn1uOoYEnQqN5-6" value="n" style="text;html=1;strokeColor=none;fillColor=none;align=center;verticalAlign=middle;whiteSpace=wrap;rounded=0;sketch=1;strokeWidth=2;fontFamily=Comic Sans MS;fontSize=20;fontColor=#0066CC;" vertex="1" parent="1">
          <mxGeometry x="235" y="92" width="60" height="30" as="geometry" />
        </mxCell>
      </root>
    </mxGraphModel>
  </diagram>
</mxfile>
